<svg xmlns="http://www.w3.org/2000/svg" viewBox="0 0 468.53 160.39">
  <defs>
    <style>
      .cls-1 {
        fill: #00234a;
      }

      .cls-1, .cls-2, .cls-3, .cls-4, .cls-5, .cls-6 {
        fill-rule: evenodd;
      }

      .cls-2 {
        fill: #ed1651;
      }

      .cls-3 {
        fill: #f37675;
      }

      .cls-4 {
        fill: #237dbc;
      }

      .cls-5 {
        fill: #004164;
      }

      .cls-6 {
        fill: #00577e;
      }
    </style>
  </defs>
  <g id="Layer_2" data-name="Layer 2">
    <g id="Layer_1-2" data-name="Layer 1">
      <g>
        <path class="cls-1" d="M350.82,92.35c0,4.06.74,7.37,2.24,9.67a12.72,12.72,0,0,0,6,5,26.44,26.44,0,0,0,8.57,1.8c3.18.17,6.55.28,10.05.28H395q4.25,0,8.84-.33a26.75,26.75,0,0,0,8.36-1.91,15.09,15.09,0,0,0,6.23-4.8c1.63-2.16,2.45-5.19,2.45-9.13v-.22c0-3.78-.58-6.77-1.75-9a11.72,11.72,0,0,0-4.85-5,20.05,20.05,0,0,0-7.48-2.13c-2.92-.29-6.17-.44-9.62-.44h-24.8a30.48,30.48,0,0,1-6-.49,8.67,8.67,0,0,1-3.44-1.42A4.34,4.34,0,0,1,361.36,72,11.83,11.83,0,0,1,361,69V66.89a9.59,9.59,0,0,1,.65-3.88,4.66,4.66,0,0,1,2.47-2.3,17.14,17.14,0,0,1,5-1.14,80.69,80.69,0,0,1,8.24-.33h16.4c2.54,0,4.82.06,6.82.17a15.35,15.35,0,0,1,5,1A6,6,0,0,1,408.66,63a10.32,10.32,0,0,1,1,5v.55h8.74v-3a17.91,17.91,0,0,0-.81-5.51,8.89,8.89,0,0,0-3.33-4.42,19.45,19.45,0,0,0-7.27-3,59.84,59.84,0,0,0-12.73-1.1H379.87a91.42,91.42,0,0,0-14.19.93,26.73,26.73,0,0,0-8.63,2.73,9.69,9.69,0,0,0-4.33,4.43,15.55,15.55,0,0,0-1.14,6V69c0,5.28,1.37,9.13,4.1,11.43s7.42,3.43,14,3.43h28.95a35,35,0,0,1,6.78.55A9.18,9.18,0,0,1,409.27,86,4.94,4.94,0,0,1,411,88.58a13.2,13.2,0,0,1,.44,3.54v.45a10.78,10.78,0,0,1-.93,4.91,5.75,5.75,0,0,1-3.06,2.62,19.3,19.3,0,0,1-5.73,1.1c-2.4.14-5.4.21-8.86.21h-20.1c-4.76,0-8.21-.75-10.21-2.24s-3-4-3-7.49V89h-8.74Zm-20.12-53h9.39V29.09H330.7Zm0,68.84h9.39V52.46H330.7Zm-65,0h9.39V72.79A15,15,0,0,1,276,67.6a12.31,12.31,0,0,1,2.73-4.31,12.86,12.86,0,0,1,4.59-3,18,18,0,0,1,6.49-1.09h5.8a77.37,77.37,0,0,1,10.1.55A12.07,12.07,0,0,1,311.69,62a8.39,8.39,0,0,1,2.79,4.87,39.52,39.52,0,0,1,.72,8.3V77.6h8.73V70.93a28.71,28.71,0,0,0-1.2-8.8,13.14,13.14,0,0,0-3.93-6,17.08,17.08,0,0,0-7.21-3.44,47.88,47.88,0,0,0-11-1.1H291.7a32.64,32.64,0,0,0-4.86.38,20.67,20.67,0,0,0-4.75,1.37,14.8,14.8,0,0,0-4.2,2.73,14.54,14.54,0,0,0-3.23,4.48h-.21V52.46h-8.74Zm-21.08-15a6.46,6.46,0,0,1-1.32,4.2,8.7,8.7,0,0,1-4.09,2.52,29.64,29.64,0,0,1-7.31,1.2c-3,.18-6.67.27-10.87.27H208.58a51.36,51.36,0,0,1-7.76-.49,12.1,12.1,0,0,1-4.59-1.58A5.34,5.34,0,0,1,194,96.55a13.78,13.78,0,0,1-.54-4V90.81a11.4,11.4,0,0,1,.71-4.31,5.46,5.46,0,0,1,2.51-2.68,13.92,13.92,0,0,1,4.75-1.36,63.4,63.4,0,0,1,7.54-.39h14.43c3.56,0,6.69.11,9.34.28a25.33,25.33,0,0,1,6.61,1.2,8.25,8.25,0,0,1,3.92,2.62,7.29,7.29,0,0,1,1.32,4.54Zm0,15H254V70.82a20.48,20.48,0,0,0-2.13-10,15,15,0,0,0-6-5.84,25.63,25.63,0,0,0-9.23-2.73,99.39,99.39,0,0,0-12-.66H209.89a60.79,60.79,0,0,0-10.76.83,21.18,21.18,0,0,0-7.22,2.51,10.11,10.11,0,0,0-4,4.41,15.81,15.81,0,0,0-1.26,6.57v2.72H196v-2a8.5,8.5,0,0,1,.55-3.11,5.1,5.1,0,0,1,2.08-2.36,11.73,11.73,0,0,1,4.26-1.46,42.76,42.76,0,0,1,7.2-.5h13.77c3.57,0,6.68.14,9.29.38a21.28,21.28,0,0,1,6.5,1.53,7.63,7.63,0,0,1,3.77,3.45,13.07,13.07,0,0,1,1.2,6V81.09h-.22a13.54,13.54,0,0,0-2.73-3.28,11.6,11.6,0,0,0-3.82-2.07,23.9,23.9,0,0,0-5.53-1c-2.13-.17-4.77-.27-7.8-.27H209.45c-4.06,0-7.7.14-10.87.43a25,25,0,0,0-8,1.92,10.51,10.51,0,0,0-4.86,4.31,15.2,15.2,0,0,0-1.64,7.55v3.71a28.47,28.47,0,0,0,.82,7,11.88,11.88,0,0,0,2.85,5.25,13.12,13.12,0,0,0,5.45,3.27,28.76,28.76,0,0,0,8.8,1.15h22.51c3.57,0,6.51-.1,8.79-.28a22.09,22.09,0,0,0,5.58-1,8.72,8.72,0,0,0,3.33-2,14.17,14.17,0,0,0,2.18-3.12h.22Zm-80.29,0h9.4V29.09h-9.4ZM144,85.9a19.4,19.4,0,0,1-1.36,7.92,11.17,11.17,0,0,1-3.82,4.7,15.08,15.08,0,0,1-5.91,2.3,44.55,44.55,0,0,1-7.47.59H106.31a44.34,44.34,0,0,1-7.53-.59,14.92,14.92,0,0,1-5.85-2.3,11.17,11.17,0,0,1-3.82-4.7,19.36,19.36,0,0,1-1.37-7.92V74.75a19.36,19.36,0,0,1,1.37-7.92,11.09,11.09,0,0,1,3.82-4.7,14.76,14.76,0,0,1,5.85-2.29,43.21,43.21,0,0,1,7.53-.6h19.13a43.48,43.48,0,0,1,7.47.6,14.86,14.86,0,0,1,5.91,2.29,11.17,11.17,0,0,1,3.82,4.7A19.4,19.4,0,0,1,144,74.75Zm-65.65.55A24.17,24.17,0,0,0,80.64,97.7,18,18,0,0,0,87,104.64a26.36,26.36,0,0,0,9.79,3.49,76.54,76.54,0,0,0,12.34.93h13.44a76.67,76.67,0,0,0,12.35-.93,26.32,26.32,0,0,0,9.77-3.49,18,18,0,0,0,6.4-6.94,24.3,24.3,0,0,0,2.28-11.25V74.2A24.3,24.3,0,0,0,151.11,63a17.88,17.88,0,0,0-6.4-6.93,26.15,26.15,0,0,0-9.77-3.5,76.76,76.76,0,0,0-12.35-.93H109.15a76.63,76.63,0,0,0-12.34.93A26.19,26.19,0,0,0,87,56,17.9,17.9,0,0,0,80.64,63,24.2,24.2,0,0,0,78.35,74.2ZM0,127.63H9.39V100.76h.22a11,11,0,0,0,5.19,6.33q3.66,2,11.19,2H43.91a53.89,53.89,0,0,0,12.41-1.25,20.38,20.38,0,0,0,8.51-4.1,16.21,16.21,0,0,0,4.87-7.43,36.63,36.63,0,0,0,1.53-11.36V75.08A28.25,28.25,0,0,0,69.1,63.29a17.73,17.73,0,0,0-5.74-7.16,22,22,0,0,0-8.24-3.55,47.05,47.05,0,0,0-9.67-1H27.63a27.73,27.73,0,0,0-11.41,2.3A13.32,13.32,0,0,0,9,61.32H8.74V52.46H0ZM61.83,86.12a21.36,21.36,0,0,1-1.2,7.81,10.25,10.25,0,0,1-3.44,4.63,13.33,13.33,0,0,1-5.51,2.26,42.1,42.1,0,0,1-7.33.59H27.63a43.06,43.06,0,0,1-7-.55,14.33,14.33,0,0,1-5.78-2.18A11.41,11.41,0,0,1,10.87,94,18.6,18.6,0,0,1,9.39,85.9V75.3q0-7.22,3.87-11.63c2.6-3,7-4.43,13.17-4.43H45.11a28.8,28.8,0,0,1,8.2,1,11.32,11.32,0,0,1,5.13,3,11,11,0,0,1,2.63,5,29.32,29.32,0,0,1,.76,7Z"/>
        <path class="cls-2" d="M430.46,0h2.38V28.9l-6.73-6.73V4.36A4.37,4.37,0,0,1,430.46,0Z"/>
        <path class="cls-3" d="M403.94,26.53V28.9h28.9l-6.76-6.73H408.29A4.37,4.37,0,0,0,403.94,26.53Z"/>
        <path class="cls-4" d="M442,0h-2.37V28.9l6.73-6.73V4.36A4.38,4.38,0,0,0,442,0Z"/>
        <path class="cls-5" d="M468.53,26.53V28.9H439.64l6.76-6.73h17.79A4.37,4.37,0,0,1,468.53,26.53Z"/>
        <path class="cls-3" d="M441.88,64.61h-2.37V35.72l6.72,6.73V60.26A4.37,4.37,0,0,1,441.88,64.61Z"/>
        <path class="cls-2" d="M468.4,38.09V35.72H439.51l6.76,6.72h17.78A4.35,4.35,0,0,0,468.4,38.09Z"/>
        <path class="cls-4" d="M430.46,64.61h2.38V35.72l-6.73,6.73V60.26A4.37,4.37,0,0,0,430.46,64.61Z"/>
        <path class="cls-5" d="M403.94,38.09V35.72h28.9l-6.76,6.72H408.29A4.36,4.36,0,0,1,403.94,38.09Z"/>
        <path class="cls-6" d="M396.45,142.73v17.66h18.23v-3.22H400.54v-4.49h8.15v-3h-8.15v-3.93h14v-3Zm-44.71,3a2.22,2.22,0,0,1,1.19.27,1.33,1.33,0,0,1,.45,1.14v2.15a1.3,1.3,0,0,1-.45,1.13,2.41,2.41,0,0,1-1.12.28H342.4v-5Zm-13.45-3v17.66h4.11v-6.68h3.86l7.12,6.68h5.88l-8.14-6.68h2.39a4.74,4.74,0,0,0,3-.79,3.18,3.18,0,0,0,1-2.56v-4.21a3.26,3.26,0,0,0-1.06-2.71,4.92,4.92,0,0,0-2.91-.71Zm-52.61,10.61,4-7.19,3.82,7.19Zm2.15-10.61-10,17.66H282l2-3.84h11.22l2.08,3.84h4.62l-10.12-17.66ZM238,145.94v3.36l4.09-.65v-1.74a4.71,4.71,0,0,0-.95-3.32c-.86-.83-2.3-.86-3.42-.86H227.16c-1.13,0-2.58,0-3.42.86a4.64,4.64,0,0,0-1,3.32v9.3c0,.75,0,2.39,1,3.32s2.29.86,3.42.86h10.53c1.12,0,2.56,0,3.42-.86a4.73,4.73,0,0,0,.95-3.32v-2l-4.09-.85v3.83H226.88V145.94Zm-54.54-3.21h-4.09v17.66h4.09Zm-59.65,14.44V145.94h7.29c2.26,0,5.81.59,5.81,5.52a5.07,5.07,0,0,1-1.54,4.13c-1,.93-2.81,1.58-5.44,1.58Zm-4.11-14.44v17.66H130c2.87,0,5.37-.25,7.25-1.37a8.48,8.48,0,0,0,3.91-7.56,8.1,8.1,0,0,0-2.43-6.27c-2.3-2.15-5.34-2.46-7.67-2.46Zm-56.51,0v17.66H81.39v-3.22H67.27v-4.49h8.15v-3H67.27v-3.93h14v-3Zm-42.59,0-8.13,10.68L4.13,142.73H.77v17.66H4.13V149.47L4,147.58a6.82,6.82,0,0,0,1.06,1.82l6.63,8.85h.83l6.64-8.82a8.32,8.32,0,0,0,1-1.85,13,13,0,0,0-.14,1.89v10.92h3.76V142.73Z"/>
      </g>
    </g>
  </g>
</svg>
