<?xml version="1.0" encoding="utf-8"?>
<!-- Generator: Adobe Illustrator 24.0.1, SVG Export Plug-In . SVG Version: 6.00 Build 0)  -->
<svg version="1.1" id="Layer_1" xmlns="http://www.w3.org/2000/svg" xmlns:xlink="http://www.w3.org/1999/xlink" x="0px" y="0px"
	 viewBox="0 0 85 20" style="enable-background:new 0 0 85 20;" xml:space="preserve">
<style type="text/css">
	.st0{fill-rule:evenodd;clip-rule:evenodd;fill:#00234A;}
	.st1{fill-rule:evenodd;clip-rule:evenodd;fill:#ED1651;}
	.st2{fill-rule:evenodd;clip-rule:evenodd;fill:#F37675;}
	.st3{fill-rule:evenodd;clip-rule:evenodd;fill:#237DBC;}
	.st4{fill-rule:evenodd;clip-rule:evenodd;fill:#004164;}
	.st5{fill-rule:evenodd;clip-rule:evenodd;fill:#00577E;}
	.st6{fill:#E41C4D;}
	.st7{fill:#E31C4D;}
	.st8{fill:#E41A4C;}
	.st9{fill:#E61B4E;}
	.st10{fill:#E12153;}
	.st11{fill:#DF2051;}
	.st12{fill:#EA1A51;}
	.st13{fill:#E61D51;}
	.st14{fill:#E31C4F;}
	.st15{fill:#E02053;}
	.st16{fill:#DE2251;}
	.st17{fill:#DE1E50;}
	.st18{fill:#A53553;}
	.st19{fill:#E41A4E;}
	.st20{fill:#E71B50;}
	.st21{fill:#E41D4E;}
	.st22{fill:#E71B4F;}
	.st23{fill:#E41C4E;}
	.st24{fill:#E51A4E;}
	.st25{fill:#E51B4E;}
	.st26{fill:#E61B4F;}
	.st27{font-family:'Raleway-Regular';}
	.st28{font-size:1.7309px;}
	.st29{font-family:'Raleway-Bold';}
</style>
<g>
	<g id="Layer_1_1_">
		<g>
			<path class="st0" d="M52.1,7.6c0,0.3,0.1,0.6,0.2,0.8c0.1,0.2,0.3,0.3,0.5,0.4c0.2,0.1,0.4,0.1,0.7,0.1c0.3,0,0.5,0,0.8,0h1.4
				c0.2,0,0.5,0,0.7,0c0.3,0,0.5-0.1,0.7-0.2c0.2-0.1,0.4-0.2,0.5-0.4c0.1-0.2,0.2-0.4,0.2-0.7v0c0-0.3,0-0.6-0.1-0.7
				c-0.1-0.2-0.2-0.3-0.4-0.4c-0.2-0.1-0.4-0.2-0.6-0.2c-0.2,0-0.5,0-0.8,0h-2c-0.2,0-0.4,0-0.5,0c-0.1,0-0.2-0.1-0.3-0.1
				C53,6,53,6,52.9,5.9c0-0.1,0-0.2,0-0.3V5.5c0-0.1,0-0.2,0.1-0.3C53,5.1,53.1,5,53.2,5c0.1,0,0.2-0.1,0.4-0.1c0.2,0,0.4,0,0.7,0
				h1.3c0.2,0,0.4,0,0.6,0c0.2,0,0.3,0,0.4,0.1c0.1,0,0.2,0.1,0.3,0.2c0.1,0.1,0.1,0.2,0.1,0.4v0h0.7V5.4c0-0.2,0-0.3-0.1-0.5
				c0-0.1-0.1-0.3-0.3-0.4c-0.1-0.1-0.3-0.2-0.6-0.2c-0.3-0.1-0.6-0.1-1-0.1h-1.2c-0.5,0-0.9,0-1.2,0.1c-0.3,0-0.5,0.1-0.7,0.2
				c-0.2,0.1-0.3,0.2-0.4,0.4c-0.1,0.1-0.1,0.3-0.1,0.5v0.3c0,0.4,0.1,0.7,0.3,0.9c0.2,0.2,0.6,0.3,1.2,0.3H56c0.2,0,0.4,0,0.6,0
				c0.1,0,0.2,0.1,0.3,0.1C57,7.1,57,7.2,57,7.3c0,0.1,0,0.2,0,0.3v0c0,0.2,0,0.3-0.1,0.4c-0.1,0.1-0.1,0.2-0.3,0.2
				c-0.1,0-0.3,0.1-0.5,0.1c-0.2,0-0.4,0-0.7,0h-1.7c-0.4,0-0.7-0.1-0.8-0.2c-0.2-0.1-0.2-0.3-0.2-0.6V7.3h-0.7L52.1,7.6L52.1,7.6z
				 M50.4,3.2h0.8V2.4h-0.8V3.2z M50.4,8.9h0.8V4.3h-0.8V8.9z M45.1,8.9h0.8V6c0-0.1,0-0.3,0.1-0.4c0-0.1,0.1-0.3,0.2-0.4
				C46.3,5.1,46.4,5,46.5,5c0.2-0.1,0.3-0.1,0.5-0.1h0.5c0.3,0,0.6,0,0.8,0c0.2,0,0.4,0.1,0.5,0.2c0.1,0.1,0.2,0.2,0.2,0.4
				c0,0.2,0.1,0.4,0.1,0.7v0.2h0.7V5.8c0-0.3,0-0.5-0.1-0.7c-0.1-0.2-0.2-0.4-0.3-0.5c-0.1-0.1-0.3-0.2-0.6-0.3
				c-0.2-0.1-0.5-0.1-0.9-0.1h-0.7c-0.1,0-0.3,0-0.4,0c-0.1,0-0.3,0.1-0.4,0.1c-0.1,0.1-0.2,0.1-0.3,0.2C46,4.7,45.9,4.8,45.8,5h0
				V4.3h-0.7V8.9z M43.4,7.7c0,0.1,0,0.3-0.1,0.3c-0.1,0.1-0.2,0.2-0.3,0.2c-0.2,0.1-0.4,0.1-0.6,0.1c-0.2,0-0.5,0-0.9,0h-1
				c-0.3,0-0.5,0-0.6,0c-0.2,0-0.3-0.1-0.4-0.1c-0.1-0.1-0.2-0.1-0.2-0.2c0-0.1,0-0.2,0-0.3V7.5c0-0.1,0-0.3,0.1-0.4
				c0-0.1,0.1-0.2,0.2-0.2s0.2-0.1,0.4-0.1c0.2,0,0.4,0,0.6,0h1.2c0.3,0,0.5,0,0.8,0c0.2,0,0.4,0,0.5,0.1c0.1,0.1,0.3,0.1,0.3,0.2
				c0.1,0.1,0.1,0.2,0.1,0.4L43.4,7.7L43.4,7.7z M43.4,8.9h0.8V5.8c0-0.3-0.1-0.6-0.2-0.8c-0.1-0.2-0.3-0.4-0.5-0.5
				c-0.2-0.1-0.5-0.2-0.8-0.2c-0.3,0-0.6-0.1-1-0.1h-1.2c-0.3,0-0.6,0-0.9,0.1c-0.2,0-0.4,0.1-0.6,0.2c-0.2,0.1-0.3,0.2-0.3,0.4
				c-0.1,0.1-0.1,0.3-0.1,0.5v0.2h0.8V5.5c0-0.1,0-0.2,0-0.3c0-0.1,0.1-0.1,0.2-0.2c0.1-0.1,0.2-0.1,0.3-0.1c0.1,0,0.3,0,0.6,0h1.1
				c0.3,0,0.5,0,0.8,0C42.6,4.9,42.8,5,43,5c0.1,0.1,0.2,0.2,0.3,0.3c0.1,0.1,0.1,0.3,0.1,0.5v0.9h0c-0.1-0.1-0.1-0.2-0.2-0.3
				c-0.1-0.1-0.2-0.1-0.3-0.2c-0.1,0-0.3-0.1-0.5-0.1c-0.2,0-0.4,0-0.6,0h-1.2c-0.3,0-0.6,0-0.9,0c-0.3,0-0.5,0.1-0.7,0.2
				c-0.2,0.1-0.3,0.2-0.4,0.4c-0.1,0.2-0.1,0.4-0.1,0.6v0.3c0,0.2,0,0.4,0.1,0.6c0,0.2,0.1,0.3,0.2,0.4c0.1,0.1,0.3,0.2,0.4,0.3
				C39.3,8.9,39.6,9,39.9,9h1.8c0.3,0,0.5,0,0.7,0c0.2,0,0.3,0,0.5-0.1c0.1,0,0.2-0.1,0.3-0.2c0.1-0.1,0.1-0.2,0.2-0.3h0L43.4,8.9
				L43.4,8.9z M36.8,8.9h0.8V2.4h-0.8V8.9z M35.1,7.1c0,0.3,0,0.5-0.1,0.7c-0.1,0.2-0.2,0.3-0.3,0.4c-0.1,0.1-0.3,0.2-0.5,0.2
				c-0.2,0-0.4,0-0.6,0H32c-0.2,0-0.4,0-0.6,0c-0.2,0-0.3-0.1-0.5-0.2c-0.1-0.1-0.2-0.2-0.3-0.4c-0.1-0.2-0.1-0.4-0.1-0.7V6.1
				c0-0.3,0-0.5,0.1-0.7c0.1-0.2,0.2-0.3,0.3-0.4C31,5,31.2,4.9,31.4,4.9c0.2,0,0.4-0.1,0.6-0.1h1.6c0.2,0,0.4,0,0.6,0.1
				c0.2,0,0.3,0.1,0.5,0.2c0.1,0.1,0.2,0.2,0.3,0.4c0.1,0.2,0.1,0.4,0.1,0.7V7.1z M29.7,7.1c0,0.4,0.1,0.7,0.2,0.9
				c0.1,0.2,0.3,0.4,0.5,0.6c0.2,0.1,0.5,0.2,0.8,0.3c0.3,0.1,0.6,0.1,1,0.1h1.1c0.4,0,0.7,0,1-0.1c0.3-0.1,0.6-0.1,0.8-0.3
				c0.2-0.1,0.4-0.3,0.5-0.6c0.1-0.2,0.2-0.5,0.2-0.9v-1c0-0.4-0.1-0.7-0.2-0.9c-0.1-0.2-0.3-0.4-0.5-0.6c-0.2-0.1-0.5-0.2-0.8-0.3
				c-0.3-0.1-0.7-0.1-1-0.1h-1.1c-0.4,0-0.7,0-1,0.1c-0.3,0.1-0.6,0.1-0.8,0.3c-0.2,0.1-0.4,0.3-0.5,0.6c-0.1,0.2-0.2,0.5-0.2,0.9
				V7.1z M23.3,10.5H24V8.3h0c0.1,0.2,0.2,0.4,0.4,0.5C24.7,8.9,25,9,25.4,9h1.5c0.4,0,0.7,0,1-0.1c0.3-0.1,0.5-0.2,0.7-0.3
				c0.2-0.2,0.3-0.4,0.4-0.6c0.1-0.3,0.1-0.6,0.1-0.9V6.2c0-0.4-0.1-0.7-0.2-1c-0.1-0.3-0.3-0.4-0.5-0.6c-0.2-0.1-0.4-0.2-0.7-0.3
				c-0.3-0.1-0.5-0.1-0.8-0.1h-1.5c-0.3,0-0.7,0.1-0.9,0.2C24.3,4.5,24.1,4.8,24,5h0V4.3h-0.7C23.3,4.3,23.3,10.5,23.3,10.5z
				 M28.3,7.1c0,0.3,0,0.5-0.1,0.6C28.2,7.9,28.1,8,28,8.1c-0.1,0.1-0.3,0.2-0.5,0.2c-0.2,0-0.4,0-0.6,0h-1.4c-0.2,0-0.4,0-0.6,0
				c-0.2,0-0.3-0.1-0.5-0.2c-0.1-0.1-0.2-0.2-0.3-0.4C24.1,7.6,24,7.3,24,7.1V6.2c0-0.4,0.1-0.7,0.3-1c0.2-0.2,0.6-0.4,1.1-0.4H27
				c0.3,0,0.5,0,0.7,0.1C27.8,5,28,5.1,28.1,5.2c0.1,0.1,0.2,0.2,0.2,0.4c0,0.2,0.1,0.4,0.1,0.6L28.3,7.1L28.3,7.1z"/>
			<path class="st1" d="M58.6,0h0.2v2.4l-0.6-0.6V0.4C58.3,0.2,58.4,0,58.6,0z"/>
			<path class="st2" d="M56.4,2.2v0.2h2.4l-0.6-0.6h-1.5C56.6,1.8,56.4,2,56.4,2.2z"/>
			<path class="st3" d="M59.6,0h-0.2v2.4l0.6-0.6V0.4C59.9,0.2,59.8,0,59.6,0z"/>
			<path class="st4" d="M61.8,2.2v0.2h-2.4l0.6-0.6h1.5C61.6,1.8,61.8,2,61.8,2.2z"/>
			<path class="st2" d="M59.6,5.3h-0.2V2.9l0.6,0.6v1.5C59.9,5.1,59.8,5.3,59.6,5.3z"/>
			<path class="st1" d="M61.7,3.1V2.9h-2.4l0.6,0.6h1.5C61.6,3.5,61.7,3.3,61.7,3.1z"/>
			<path class="st3" d="M58.6,5.3h0.2V2.9l-0.6,0.6v1.5C58.3,5.1,58.4,5.3,58.6,5.3z"/>
			<path class="st4" d="M56.4,3.1V2.9h2.4l-0.6,0.6h-1.5C56.6,3.5,56.4,3.3,56.4,3.1z"/>
			<path class="st5" d="M55.8,11.7v1.5h1.5v-0.3h-1.2v-0.4h0.7v-0.2h-0.7V12h1.1v-0.2L55.8,11.7L55.8,11.7z M52.2,12
				C52.2,12,52.2,12,52.2,12c0.1,0.1,0.1,0.1,0.1,0.1v0.2c0,0,0,0.1,0,0.1c0,0-0.1,0-0.1,0h-0.8V12L52.2,12L52.2,12z M51.1,11.7v1.5
				h0.3v-0.5h0.3l0.6,0.5h0.5l-0.7-0.5h0.2c0.1,0,0.2,0,0.2-0.1c0,0,0.1-0.1,0.1-0.2V12c0-0.1,0-0.2-0.1-0.2
				c-0.1-0.1-0.2-0.1-0.2-0.1L51.1,11.7L51.1,11.7z M46.7,12.6l0.3-0.6l0.3,0.6H46.7z M46.9,11.7l-0.8,1.5h0.3l0.2-0.3h0.9l0.2,0.3
				h0.4l-0.8-1.5H46.9z M42.8,12v0.3l0.3-0.1v-0.1c0-0.1,0-0.2-0.1-0.3c-0.1-0.1-0.2-0.1-0.3-0.1h-0.9c-0.1,0-0.2,0-0.3,0.1
				c-0.1,0.1-0.1,0.2-0.1,0.3v0.8c0,0.1,0,0.2,0.1,0.3c0.1,0.1,0.2,0.1,0.3,0.1h0.9c0.1,0,0.2,0,0.3-0.1c0.1-0.1,0.1-0.2,0.1-0.3
				v-0.2l-0.3-0.1v0.3h-0.9V12L42.8,12L42.8,12z M38.3,11.7H38v1.5h0.3V11.7z M33.4,12.9V12H34c0.2,0,0.5,0,0.5,0.5
				c0,0.1,0,0.2-0.1,0.3c-0.1,0.1-0.2,0.1-0.4,0.1H33.4z M33.1,11.7v1.5h0.8c0.2,0,0.4,0,0.6-0.1c0.1-0.1,0.3-0.3,0.3-0.6
				c0-0.2-0.1-0.4-0.2-0.5c-0.2-0.2-0.4-0.2-0.6-0.2L33.1,11.7L33.1,11.7z M28.5,11.7v1.5H30v-0.3h-1.2v-0.4h0.7v-0.2h-0.7V12h1.1
				v-0.2L28.5,11.7L28.5,11.7z M25,11.7l-0.7,0.9l-0.7-0.9h-0.3v1.5h0.3v-0.9l0-0.2c0,0,0,0.1,0.1,0.1l0.5,0.7h0.1l0.5-0.7
				c0,0,0.1-0.1,0.1-0.2c0,0.1,0,0.1,0,0.2v0.9h0.3v-1.5H25z"/>
		</g>
	</g>
	<g id="Layer_2_1_">
		<g>
			<path class="st6" d="M44.4,15.6c0,0.2,0,0.4,0,0.6c0,0.1,0.1,0.3-0.1,0.3c-0.2,0-0.1-0.2-0.1-0.3c0-0.1,0-0.3,0-0.4
				c0-0.1,0-0.2-0.2-0.2c-0.4,0-0.4,0-0.4,0.4c0,0.1,0,0.2,0,0.3c0,0.1,0,0.1-0.1,0.1c-0.1,0-0.2,0-0.2-0.1c0-0.5,0-1.1,0-1.6
				c0-0.1,0-0.2,0.1-0.2c0.1,0,0.1,0.1,0.1,0.2c0,0.1,0,0.2,0,0.3c0,0.3,0.2,0.4,0.5,0.3c0.1,0,0.1-0.1,0.1-0.2c0-0.1,0-0.3,0-0.4
				c0-0.1,0-0.1,0.2-0.2c0.1,0,0.1,0.1,0.1,0.1C44.4,15.1,44.4,15.4,44.4,15.6z"/>
			<path class="st7" d="M39.6,15.6c-0.1-0.1,0-0.2-0.2-0.2c-0.1,0-0.2,0.1-0.2,0.2c0,0.2,0,0.5,0,0.7c0,0.1,0,0.2-0.1,0.2
				c-0.2,0-0.1-0.1-0.1-0.2c0-0.2,0-0.4,0-0.7c0-0.1,0-0.2-0.1-0.2c-0.1,0-0.2,0.1-0.2,0.2c0,0.2,0,0.5,0,0.7c0,0.1,0,0.2-0.1,0.2
				c-0.1,0-0.1-0.1-0.1-0.2c0-0.4,0-0.7,0-1.1c0-0.1,0.1-0.2,0.1-0.1c0.2,0.1,0.3-0.1,0.4,0c0.2,0.1,0.5,0.1,0.7,0
				c0.1,0,0.2,0.1,0.3,0.3c0,0.3,0,0.7,0,1c0,0.2-0.1,0.1-0.2,0.1c-0.1-0.2,0-0.4,0-0.6C39.6,15.8,39.7,15.7,39.6,15.6z"/>
			<path class="st8" d="M34.9,15.6c0-0.3,0-0.5,0-0.8c0-0.1,0-0.2,0.1-0.2c0.1,0,0.1,0.1,0.1,0.2c0,0.1,0,0.2,0,0.2
				c0,0.4,0.1,0.4,0.5,0.4c0.1,0,0.1-0.1,0.1-0.1c0-0.2,0-0.3,0-0.5c0-0.1,0-0.2,0.1-0.2c0.1,0,0.1,0.1,0.1,0.1c0,0.5,0,1.1,0,1.6
				c0,0.1,0,0.2-0.1,0.2c-0.1,0-0.1-0.1-0.1-0.2c0-0.2,0-0.3,0-0.5c0-0.2-0.1-0.2-0.3-0.2c-0.1,0-0.3-0.1-0.3,0.2c0,0.2,0,0.3,0,0.5
				c0,0.1,0,0.2-0.1,0.2c-0.1,0-0.1-0.1-0.1-0.2C34.9,16.1,34.9,15.9,34.9,15.6z"/>
			<path class="st9" d="M50.7,15.3c0.4-0.2,0.6-0.1,0.6,0.3c0,0.3,0,0.5,0,0.8c0,0.1,0,0.2-0.1,0.2s-0.1-0.1-0.1-0.2
				c0-0.3,0-0.5,0-0.8c0-0.1,0-0.2-0.1-0.2c-0.1,0-0.2,0.1-0.2,0.2c-0.1,0.2,0,0.5,0,0.7c0,0.1,0.1,0.2-0.1,0.2
				c-0.2,0-0.1-0.1-0.1-0.2c0-0.5,0-1,0-1.5c0-0.1,0-0.2,0.1-0.2c0.2,0,0.1,0.1,0.1,0.2C50.7,15,50.7,15.1,50.7,15.3z"/>
			<path class="st10" d="M23.7,15.8c0-0.2,0-0.4,0-0.6c0-0.2,0-0.2-0.2-0.2c-0.1,0-0.2,0-0.2-0.2c0-0.2,0.1-0.2,0.2-0.2
				c0.2,0,0.5,0,0.7,0c0.1,0,0.2,0,0.2,0.2c0,0.1-0.1,0.2-0.2,0.2C24,15,24,15.1,24,15.3c0,0.4,0,0.8,0,1.1c0,0.1,0,0.2-0.1,0.2
				c-0.2,0-0.1-0.1-0.1-0.2C23.7,16.2,23.7,16,23.7,15.8z"/>
			<path class="st11" d="M27.1,15.9c0,0.2,0,0.4,0,0.5c0,0.1-0.1,0.2-0.2,0.1c-0.1-0.1-0.2,0-0.3,0c-0.2,0.1-0.4,0-0.4-0.3
				c0-0.3,0-0.7,0-1c0-0.1,0.1-0.1,0.1-0.1c0.1,0,0.1,0.1,0.1,0.1c0,0.2,0,0.4,0,0.7c0,0.1,0,0.3,0.2,0.3c0.2,0,0.2-0.1,0.2-0.3
				c0-0.2,0-0.4,0-0.7c0-0.1,0-0.2,0.1-0.2c0.1,0,0.1,0.1,0.1,0.2C27.1,15.5,27.1,15.7,27.1,15.9z"/>
			<path class="st12" d="M28.2,15.2c0.2,0,0.3,0,0.4,0.2c0,0.1,0.1,0.1,0,0.2c-0.1,0-0.2,0.1-0.2,0c0-0.1-0.1-0.1-0.2-0.1
				c-0.1,0-0.1,0-0.1,0.1c0,0.1,0,0.1,0.1,0.1c0.1,0,0.2,0.1,0.3,0.1c0.2,0.1,0.3,0.3,0.2,0.5c0,0.2-0.2,0.4-0.4,0.4
				c-0.2,0-0.4-0.1-0.5-0.3c0,0,0-0.1,0-0.1c0.1,0,0.1-0.1,0.2,0c0,0,0.1,0.1,0.1,0.1c0.1,0.1,0.2,0.1,0.3,0c0.1-0.1,0-0.2-0.1-0.2
				c-0.2-0.1-0.3-0.1-0.4-0.2c-0.1-0.1-0.1-0.3,0-0.5C27.9,15.2,28.1,15.2,28.2,15.2z"/>
			<path class="st7" d="M52.1,15.9c0-0.2,0-0.4,0.1-0.5c0.2-0.3,0.6-0.2,0.7,0.1c0,0.1,0.1,0.1,0,0.2c-0.1,0-0.2,0.1-0.2,0
				c0-0.1-0.1-0.1-0.2-0.1c-0.1,0-0.2,0.1-0.2,0.2c0,0.1,0,0.2,0,0.3c0,0.1,0,0.2,0.2,0.3c0.1,0,0.2-0.1,0.2-0.2
				c0-0.1,0.1-0.1,0.2-0.1c0.1,0,0.1,0.1,0.1,0.2c-0.1,0.2-0.1,0.3-0.4,0.4c-0.2,0-0.4,0-0.5-0.2C52.1,16.2,52,16.1,52.1,15.9z"/>
			<path class="st13" d="M29.7,14.8c0.1,0.2-0.1,0.4,0.2,0.5c0,0,0.1,0.2-0.1,0.2c-0.1,0.1-0.1,0.7,0,0.8c0.1,0,0.1,0.1,0.1,0.2
				c0,0.1-0.1,0.1-0.1,0.1c-0.1,0-0.2,0-0.3-0.1c-0.1-0.1,0-0.2-0.1-0.3c0-0.2,0.1-0.5-0.1-0.7c0,0,0,0,0-0.1
				C29.2,15.2,29.5,14.8,29.7,14.8z"/>
			<path class="st14" d="M49.6,14.8c0.1,0.2-0.1,0.4,0.2,0.5c0,0,0.1,0.2,0,0.2c-0.3,0.1-0.1,0.3-0.1,0.4c0,0.1-0.2,0.4,0.2,0.4
				c0.1,0,0,0.1,0,0.2c0,0.1-0.1,0.1-0.1,0.1c-0.1,0-0.2,0-0.3-0.1c-0.1-0.1-0.1-0.2-0.1-0.3c0-0.3,0.1-0.5-0.1-0.8
				C49.1,15.3,49.4,14.9,49.6,14.8z"/>
			<path class="st15" d="M55.2,15.9c0-0.2,0-0.3,0-0.5c0-0.1,0-0.2,0.1-0.2c0.2,0,0.3,0,0.4,0c0.1,0,0.2,0,0.1,0.1
				c0,0.1,0,0.2-0.1,0.2c-0.2,0-0.2,0.1-0.2,0.2c0,0.2,0,0.4,0,0.7c0,0.1,0,0.2-0.1,0.2c-0.1,0-0.1-0.1-0.1-0.2
				C55.2,16.2,55.2,16,55.2,15.9z"/>
			<path class="st16" d="M48.6,15.6c0,0.3,0,0.5,0,0.8c0,0.1,0,0.2-0.1,0.2c-0.1,0-0.1-0.1-0.1-0.2c0-0.5,0-1,0-1.6
				c0-0.1,0-0.2,0.1-0.2c0.1,0,0.1,0.1,0.1,0.2C48.6,15.1,48.6,15.4,48.6,15.6C48.6,15.6,48.6,15.6,48.6,15.6z"/>
			<path class="st17" d="M24.9,15.9c0-0.1,0-0.3,0-0.4c0,0,0-0.1,0-0.1c0-0.1,0-0.1,0.1-0.1c0.2,0.1,0.4-0.1,0.5,0
				c0.1,0.1,0,0.1,0,0.2c0,0,0,0.1-0.1,0.1c-0.2-0.1-0.2,0.1-0.2,0.3c0,0.2,0,0.4,0,0.6c0,0.1,0,0.2-0.1,0.2c-0.1,0-0.1-0.1-0.1-0.2
				C24.9,16.2,24.9,16,24.9,15.9C24.9,15.9,24.9,15.9,24.9,15.9z"/>
			<path class="st18" d="M39.6,15.6c0.1,0.3,0,0.6,0.1,0.9c-0.1-0.1,0-0.3-0.1-0.5C39.6,15.9,39.6,15.8,39.6,15.6z"/>
			<path class="st19" d="M33,14.8c0-0.1,0-0.1-0.1-0.1s-0.1,0-0.1,0.1c0,0.1,0,0.3,0,0.5c-0.3-0.1-0.5-0.1-0.6,0.1
				c-0.2,0.3-0.1,0.8,0,1.1c0.1,0.1,0.2,0.2,0.4,0.1c0.1,0,0.2-0.2,0.3,0c0,0,0.1,0,0.1-0.1C33,15.9,33,15.3,33,14.8z M32.5,16.3
				c-0.3,0-0.2-0.3-0.2-0.4c0-0.2,0-0.4,0.2-0.4c0.2,0,0.2,0.2,0.2,0.4C32.7,16,32.7,16.3,32.5,16.3z"/>
			<path class="st20" d="M56.8,16c0.1,0,0.1,0,0.2,0c0.4,0,0.4,0,0.3-0.4c0-0.1-0.1-0.2-0.1-0.3c-0.2-0.3-0.5-0.2-0.7,0
				c-0.1,0.2-0.1,0.3-0.1,0.5c0,0.2,0,0.3,0.1,0.5c0.1,0.2,0.2,0.2,0.4,0.2c0.2,0,0.3-0.1,0.3-0.2c0-0.1,0.1-0.1,0-0.2
				c-0.1,0-0.2-0.1-0.2,0c0,0,0,0.1-0.1,0.1c-0.1,0-0.1,0-0.2,0c-0.1-0.1-0.1-0.1-0.1-0.2C56.7,15.9,56.8,16,56.8,16z M56.7,15.6
				c0-0.1,0.1-0.2,0.2-0.2c0.1,0,0.2,0.1,0.2,0.2c0,0.2-0.1,0.1-0.2,0.1C56.8,15.7,56.6,15.8,56.7,15.6z"/>
			<path class="st21" d="M45.6,16c0.1,0,0.1,0,0.2,0c0.4,0,0.4,0,0.3-0.4c0-0.1,0-0.1-0.1-0.2c-0.2-0.3-0.5-0.3-0.7,0
				c-0.1,0.1-0.1,0.3-0.1,0.5c0,0.2,0,0.4,0.1,0.5c0.1,0.1,0.2,0.2,0.4,0.2c0.2,0,0.3-0.1,0.3-0.2c0-0.1,0.1-0.1,0-0.2
				c-0.1,0-0.1-0.1-0.2,0c0,0,0,0.1-0.1,0.1c-0.1,0-0.1,0-0.2,0c-0.1-0.1-0.1-0.1-0.1-0.2C45.4,16,45.5,16,45.6,16z M45.4,15.6
				c0-0.1,0.1-0.2,0.2-0.2c0.1,0,0.2,0.1,0.2,0.2c0,0.1-0.1,0.1-0.2,0.1C45.5,15.7,45.4,15.8,45.4,15.6z"/>
			<path class="st22" d="M47.6,16.4c0-0.1,0-0.3,0-0.4c0-0.2,0-0.3,0-0.5c0-0.3-0.3-0.5-0.6-0.4c-0.1,0.1-0.2,0.2-0.2,0.3
				c0.1,0.1,0.2,0.1,0.3,0c0-0.1,0.1-0.1,0.2,0c0.1,0,0.1,0.1,0.1,0.1c0,0.1-0.1,0.1-0.2,0.1c-0.1,0-0.2,0.1-0.3,0.1
				c-0.2,0.1-0.2,0.4-0.1,0.6c0.1,0.2,0.3,0.2,0.5,0.1c0.1,0,0.1-0.1,0.2,0C47.4,16.6,47.6,16.7,47.6,16.4z M47.3,16.1
				c0,0.1-0.1,0.3-0.2,0.3c-0.1,0-0.1-0.1-0.1-0.2c0-0.2,0.1-0.2,0.3-0.2C47.3,15.9,47.3,16,47.3,16.1z"/>
			<path class="st23" d="M41,16c0,0,0.1,0,0.1,0c0.4,0,0.4,0,0.3-0.4c0-0.1-0.1-0.2-0.1-0.3c-0.2-0.2-0.4-0.2-0.6,0
				c-0.2,0.3-0.2,0.9,0,1.1c0.2,0.2,0.5,0.2,0.6,0c0.1-0.1,0.2-0.2,0.1-0.3c-0.1-0.1-0.2-0.1-0.3,0.1c0,0.1-0.1,0.1-0.2,0
				c-0.1-0.1-0.1-0.1-0.1-0.2C40.8,15.9,40.9,16,41,16z M41,15.4c0.1,0,0.2,0.1,0.2,0.2c0,0.2-0.1,0.1-0.2,0.1c-0.1,0-0.2,0-0.2-0.1
				C40.8,15.5,40.9,15.4,41,15.4z"/>
			<path class="st24" d="M37.7,15.5c-0.1-0.2-0.2-0.4-0.4-0.4c-0.3,0-0.4,0.1-0.5,0.4c-0.1,0.1-0.1,0.3-0.1,0.4
				c0,0.4,0.2,0.6,0.5,0.6c0.3,0,0.5-0.3,0.5-0.6c0,0,0-0.1,0-0.1C37.7,15.8,37.7,15.6,37.7,15.5z M37.4,16c0,0.1-0.1,0.3-0.2,0.3
				C37,16.3,37,16.2,37,16c0-0.1,0-0.1,0-0.2c0-0.1,0-0.1,0-0.2c0-0.1,0.1-0.2,0.2-0.2c0.1,0,0.2,0.1,0.2,0.2
				C37.5,15.8,37.5,15.9,37.4,16z"/>
			<path class="st25" d="M54.5,16.4c0-0.2,0-0.3,0-0.5c0,0,0,0,0,0c0-0.1,0-0.3,0-0.4c0-0.2-0.1-0.3-0.3-0.3c-0.2,0-0.4,0-0.5,0.2
				c0,0.1-0.1,0.1,0,0.2c0.1,0,0.1,0.1,0.2,0c0,0,0-0.1,0.1-0.1c0.1-0.1,0.1-0.1,0.2,0c0,0,0.1,0.1,0.1,0.1c0,0.1-0.1,0.1-0.1,0.1
				c-0.1,0-0.2,0.1-0.3,0.1c-0.2,0.1-0.2,0.4-0.1,0.6c0.1,0.2,0.3,0.2,0.5,0.1c0.1,0,0.1-0.1,0.2,0c0,0.1,0.1,0,0.2,0
				C54.6,16.5,54.5,16.4,54.5,16.4z M54,16.3c-0.1,0-0.1-0.1-0.1-0.2c0-0.2,0.2-0.2,0.3-0.2c0.1,0,0,0.1,0.1,0.1
				C54.2,16.2,54.1,16.3,54,16.3z"/>
			<path class="st26" d="M30.9,16c0.1,0,0.2,0,0.3,0c0.1,0,0.2,0,0.2-0.2c0-0.1,0-0.2-0.1-0.3c-0.1-0.2-0.2-0.3-0.4-0.3
				c-0.2,0-0.3,0.1-0.4,0.2c-0.1,0.3-0.1,0.6,0,0.9c0.1,0.2,0.2,0.2,0.4,0.2c0.2,0,0.3-0.1,0.3-0.2c0-0.1,0.1-0.1,0-0.2
				c-0.1,0-0.1-0.1-0.2,0c0,0,0,0.1-0.1,0.1c-0.1,0.1-0.1,0.1-0.2,0c-0.1-0.1-0.1-0.1-0.1-0.2C30.7,15.9,30.8,16,30.9,16z
				 M30.9,15.4c0.1,0,0.2,0.1,0.2,0.2c0,0.1-0.1,0.1-0.2,0.1c-0.1,0-0.2,0-0.2-0.1C30.7,15.6,30.8,15.4,30.9,15.4z"/>
		</g>
		<text transform="matrix(1 0 0 1 24.9678 19.6045)" class="st27 st28">A unit of </text>
		<text transform="matrix(1 0 0 1 32.0571 19.6045)" class="st29 st28">Vaidehi Hospitality Pvt. Ltd.</text>
	</g>
</g>
</svg>
